<mxfile modified="2022-12-13T15:04:59.419Z" host="app.diagrams.net" agent="5.0 (X11)" etag="5a4q7V1twYWluC0WYP35" version="20.6.2" type="github">
  <diagram id="Ht1M8jgEwFfnCIfOTk4-" name="Page-1">
    <mxGraphModel dx="3555" dy="2725" grid="1" gridSize="10" guides="1" tooltips="1" connect="1" arrows="1" fold="1" page="1" pageScale="1" pageWidth="1169" pageHeight="827" math="0" shadow="0">
      <root>
        <mxCell id="0" />
        <mxCell id="1" parent="0" />
        <mxCell id="xgc6DM9Copx6KXdF2zNQ-38" value="" style="rounded=0;whiteSpace=wrap;html=1;dashed=1;strokeWidth=5;fillColor=none;" parent="1" vertex="1">
          <mxGeometry x="1245" y="-241" width="346.5" height="166" as="geometry" />
        </mxCell>
        <mxCell id="6ciUN1QbZPSy4jL6s6Ek-6" value="" style="rounded=1;whiteSpace=wrap;html=1;strokeWidth=3;fontSize=30;fillColor=none;strokeColor=#FF5314;" parent="1" vertex="1">
          <mxGeometry x="75" y="-740" width="2115" height="1310" as="geometry" />
        </mxCell>
        <mxCell id="xgc6DM9Copx6KXdF2zNQ-42" value="" style="rounded=0;whiteSpace=wrap;html=1;dashed=1;strokeWidth=5;fillColor=none;" parent="1" vertex="1">
          <mxGeometry x="1245" y="-450" width="346.5" height="166" as="geometry" />
        </mxCell>
        <mxCell id="xgc6DM9Copx6KXdF2zNQ-48" style="edgeStyle=orthogonalEdgeStyle;rounded=0;orthogonalLoop=1;jettySize=auto;html=1;strokeWidth=6;fontSize=30;fontColor=none;" parent="1" source="6ciUN1QbZPSy4jL6s6Ek-3" target="xgc6DM9Copx6KXdF2zNQ-38" edge="1">
          <mxGeometry relative="1" as="geometry" />
        </mxCell>
        <mxCell id="xgc6DM9Copx6KXdF2zNQ-49" style="edgeStyle=orthogonalEdgeStyle;rounded=0;orthogonalLoop=1;jettySize=auto;html=1;exitX=1;exitY=0.5;exitDx=0;exitDy=0;entryX=0;entryY=0.5;entryDx=0;entryDy=0;strokeWidth=6;fontSize=30;fontColor=none;" parent="1" source="6ciUN1QbZPSy4jL6s6Ek-3" target="xgc6DM9Copx6KXdF2zNQ-42" edge="1">
          <mxGeometry relative="1" as="geometry" />
        </mxCell>
        <mxCell id="6ciUN1QbZPSy4jL6s6Ek-3" value="" style="rounded=0;whiteSpace=wrap;html=1;dashed=1;strokeWidth=5;fillColor=none;" parent="1" vertex="1">
          <mxGeometry x="534" y="-353" width="443" height="166" as="geometry" />
        </mxCell>
        <mxCell id="xgc6DM9Copx6KXdF2zNQ-7" value="" style="rounded=0;whiteSpace=wrap;html=1;dashed=1;strokeWidth=5;fillColor=none;" parent="1" vertex="1">
          <mxGeometry x="534" y="-42" width="443" height="399" as="geometry" />
        </mxCell>
        <mxCell id="xgc6DM9Copx6KXdF2zNQ-21" style="edgeStyle=orthogonalEdgeStyle;rounded=0;orthogonalLoop=1;jettySize=auto;html=1;strokeWidth=6;fontSize=23;fontColor=default;" parent="1" source="6ciUN1QbZPSy4jL6s6Ek-3" target="UEzPUAAOIrF-is8g5C7q-109" edge="1">
          <mxGeometry relative="1" as="geometry">
            <Array as="points">
              <mxPoint x="360" y="-270" />
            </Array>
          </mxGeometry>
        </mxCell>
        <mxCell id="xgc6DM9Copx6KXdF2zNQ-19" style="edgeStyle=orthogonalEdgeStyle;rounded=0;orthogonalLoop=1;jettySize=auto;html=1;entryX=0;entryY=0.5;entryDx=0;entryDy=0;strokeWidth=6;fontSize=30;fontColor=#FF6E42;" parent="1" source="UEzPUAAOIrF-is8g5C7q-109" target="6ciUN1QbZPSy4jL6s6Ek-3" edge="1">
          <mxGeometry relative="1" as="geometry">
            <Array as="points">
              <mxPoint x="360" y="-270" />
            </Array>
          </mxGeometry>
        </mxCell>
        <mxCell id="Y8FRlR6LI_EW2aDHlQSC-1" value="" style="sketch=0;outlineConnect=0;fontColor=#232F3E;gradientColor=none;fillColor=#2E27AD;strokeColor=none;dashed=0;verticalLabelPosition=bottom;verticalAlign=top;align=center;html=1;fontSize=12;fontStyle=0;aspect=fixed;pointerEvents=1;shape=mxgraph.aws4.rds_postgresql_instance_alt;" parent="1" vertex="1">
          <mxGeometry x="849" y="-312.5" width="80" height="80" as="geometry" />
        </mxCell>
        <mxCell id="Y8FRlR6LI_EW2aDHlQSC-2" value="" style="dashed=0;outlineConnect=0;html=1;align=center;labelPosition=center;verticalLabelPosition=bottom;verticalAlign=top;shape=mxgraph.webicons.apache;gradientColor=#DFDEDE" parent="1" vertex="1">
          <mxGeometry x="601" y="-312.5" width="80" height="80" as="geometry" />
        </mxCell>
        <mxCell id="6ciUN1QbZPSy4jL6s6Ek-1" value="" style="shape=image;html=1;verticalAlign=top;verticalLabelPosition=bottom;labelBackgroundColor=#ffffff;imageAspect=0;aspect=fixed;image=https://cdn2.iconfinder.com/data/icons/boxicons-logos/24/bxl-django-128.png" parent="1" vertex="1">
          <mxGeometry x="711" y="-314" width="88" height="88" as="geometry" />
        </mxCell>
        <mxCell id="6ciUN1QbZPSy4jL6s6Ek-7" value="&lt;font color=&quot;#FF642B&quot;&gt;Draw.io&lt;/font&gt;" style="text;html=1;align=center;verticalAlign=middle;resizable=0;points=[];autosize=1;strokeColor=none;fillColor=none;fontSize=30;" parent="1" vertex="1">
          <mxGeometry x="310" y="-660" width="120" height="50" as="geometry" />
        </mxCell>
        <mxCell id="xgc6DM9Copx6KXdF2zNQ-2" value="" style="shape=image;html=1;verticalAlign=top;verticalLabelPosition=bottom;labelBackgroundColor=#ffffff;imageAspect=0;aspect=fixed;image=https://cdn1.iconfinder.com/data/icons/unicons-line-vol-5/24/react-128.png" parent="1" vertex="1">
          <mxGeometry x="788" y="-263" width="40" height="40" as="geometry" />
        </mxCell>
        <mxCell id="xgc6DM9Copx6KXdF2zNQ-11" value="" style="edgeStyle=orthogonalEdgeStyle;rounded=0;orthogonalLoop=1;jettySize=auto;html=1;strokeWidth=6;fontSize=30;fontColor=#FF6E42;exitX=1;exitY=0.5;exitDx=0;exitDy=0;exitPerimeter=0;" parent="1" source="xgc6DM9Copx6KXdF2zNQ-3" target="xgc6DM9Copx6KXdF2zNQ-5" edge="1">
          <mxGeometry relative="1" as="geometry" />
        </mxCell>
        <mxCell id="xgc6DM9Copx6KXdF2zNQ-13" style="edgeStyle=orthogonalEdgeStyle;rounded=0;orthogonalLoop=1;jettySize=auto;html=1;strokeWidth=6;fontSize=30;fontColor=#FF6E42;" parent="1" source="xgc6DM9Copx6KXdF2zNQ-3" target="xgc6DM9Copx6KXdF2zNQ-4" edge="1">
          <mxGeometry relative="1" as="geometry" />
        </mxCell>
        <mxCell id="xgc6DM9Copx6KXdF2zNQ-3" value="" style="outlineConnect=0;dashed=0;verticalLabelPosition=bottom;verticalAlign=top;align=center;html=1;shape=mxgraph.aws3.android;fillColor=#205E00;gradientColor=none;" parent="1" vertex="1">
          <mxGeometry x="732" y="121" width="38.5" height="44" as="geometry" />
        </mxCell>
        <mxCell id="xgc6DM9Copx6KXdF2zNQ-4" value="" style="shape=image;html=1;verticalAlign=top;verticalLabelPosition=bottom;labelBackgroundColor=#ffffff;imageAspect=0;aspect=fixed;image=https://cdn1.iconfinder.com/data/icons/bootstrap-vol-3/16/filetype-js-128.png" parent="1" vertex="1">
          <mxGeometry x="680" y="37" width="46" height="46" as="geometry" />
        </mxCell>
        <mxCell id="xgc6DM9Copx6KXdF2zNQ-5" value="" style="shape=image;html=1;verticalAlign=top;verticalLabelPosition=bottom;labelBackgroundColor=#ffffff;imageAspect=0;aspect=fixed;image=https://cdn1.iconfinder.com/data/icons/bootstrap-vol-3/16/filetype-scss-128.png" parent="1" vertex="1">
          <mxGeometry x="774.25" y="37" width="46" height="46" as="geometry" />
        </mxCell>
        <mxCell id="xgc6DM9Copx6KXdF2zNQ-9" style="edgeStyle=orthogonalEdgeStyle;rounded=0;orthogonalLoop=1;jettySize=auto;html=1;exitX=0.5;exitY=0;exitDx=0;exitDy=0;entryX=0.5;entryY=1;entryDx=0;entryDy=0;entryPerimeter=0;fontSize=30;fontColor=#FF6E42;strokeWidth=6;" parent="1" source="xgc6DM9Copx6KXdF2zNQ-6" target="xgc6DM9Copx6KXdF2zNQ-3" edge="1">
          <mxGeometry relative="1" as="geometry" />
        </mxCell>
        <mxCell id="xgc6DM9Copx6KXdF2zNQ-6" value="" style="shape=image;html=1;verticalAlign=top;verticalLabelPosition=bottom;labelBackgroundColor=#ffffff;imageAspect=0;aspect=fixed;image=https://cdn1.iconfinder.com/data/icons/bootstrap-vol-3/16/filetype-jsx-128.png" parent="1" vertex="1">
          <mxGeometry x="728.25" y="249" width="46" height="46" as="geometry" />
        </mxCell>
        <mxCell id="xgc6DM9Copx6KXdF2zNQ-8" value="&lt;div style=&quot;font-size: 30px;&quot;&gt;&lt;font style=&quot;font-size: 30px;&quot; color=&quot;#FF6E42&quot;&gt;Babel transpiles the &lt;br&gt;&lt;/font&gt;&lt;/div&gt;&lt;div style=&quot;font-size: 30px;&quot;&gt;&lt;font style=&quot;font-size: 30px;&quot; color=&quot;#FF6E42&quot;&gt;.jsx into .js and &lt;br&gt;&lt;/font&gt;&lt;/div&gt;&lt;div style=&quot;font-size: 30px;&quot;&gt;&lt;font style=&quot;font-size: 30px;&quot; color=&quot;#FF6E42&quot;&gt;Webpack then &lt;br&gt;&lt;/font&gt;&lt;/div&gt;&lt;div style=&quot;font-size: 30px;&quot;&gt;&lt;font style=&quot;font-size: 30px;&quot; color=&quot;#FF6E42&quot;&gt;bundles all &lt;br&gt;&lt;/font&gt;&lt;/div&gt;&lt;div style=&quot;font-size: 30px;&quot;&gt;&lt;font style=&quot;font-size: 30px;&quot; color=&quot;#FF6E42&quot;&gt;of the .js files and &lt;br&gt;&lt;/font&gt;&lt;/div&gt;&lt;div style=&quot;font-size: 30px;&quot;&gt;&lt;font style=&quot;font-size: 30px;&quot; color=&quot;#FF6E42&quot;&gt;the index.scss &lt;br&gt;&lt;/font&gt;&lt;/div&gt;&lt;div style=&quot;font-size: 30px;&quot;&gt;&lt;font style=&quot;font-size: 30px;&quot; color=&quot;#FF6E42&quot;&gt;into two files&lt;/font&gt;&lt;/div&gt;" style="text;html=1;align=center;verticalAlign=middle;resizable=0;points=[];autosize=1;strokeColor=none;fillColor=none;fontColor=#FF6E42;labelBackgroundColor=default;" parent="1" vertex="1">
          <mxGeometry x="820.25" y="127" width="290" height="270" as="geometry" />
        </mxCell>
        <mxCell id="xgc6DM9Copx6KXdF2zNQ-10" value="&lt;div&gt;&lt;font style=&quot;font-size: 30px;&quot;&gt;The front end is &lt;br&gt;&lt;/font&gt;&lt;/div&gt;&lt;div&gt;&lt;font style=&quot;font-size: 30px;&quot;&gt;integrated into django&lt;/font&gt;&lt;/div&gt;&lt;div&gt;&lt;font style=&quot;font-size: 30px;&quot;&gt;&amp;nbsp;as an &quot;app&quot;. It&#39;s static &lt;br&gt;&lt;/font&gt;&lt;/div&gt;&lt;div&gt;&lt;font style=&quot;font-size: 30px;&quot;&gt;files then get fed &lt;br&gt;&lt;/font&gt;&lt;/div&gt;&lt;div&gt;&lt;font style=&quot;font-size: 30px;&quot;&gt;into the main static &lt;br&gt;&lt;/font&gt;&lt;/div&gt;&lt;div&gt;&lt;font style=&quot;font-size: 30px;&quot;&gt;folder with the &lt;br&gt;&lt;/font&gt;&lt;/div&gt;&lt;div&gt;&lt;font style=&quot;font-size: 30px;&quot;&gt;collectstatic command&lt;/font&gt;&lt;/div&gt;" style="text;html=1;align=center;verticalAlign=middle;resizable=0;points=[];autosize=1;strokeColor=none;fillColor=none;fontColor=#FF6E42;labelBackgroundColor=default;" parent="1" vertex="1">
          <mxGeometry x="335" y="-3" width="320" height="270" as="geometry" />
        </mxCell>
        <mxCell id="UEzPUAAOIrF-is8g5C7q-109" value="&lt;p style=&quot;line-height: 150%;&quot;&gt;&lt;/p&gt;&lt;div style=&quot;font-size: 30px; line-height: 0%;&quot;&gt;&lt;font style=&quot;font-size: 23px;&quot;&gt;Client&lt;/font&gt;&lt;/div&gt;&lt;p&gt;&lt;/p&gt;" style="outlineConnect=0;gradientColor=none;fontColor=none;strokeColor=none;fillColor=#879196;dashed=0;verticalLabelPosition=bottom;verticalAlign=bottom;align=center;html=1;fontSize=12;fontStyle=0;aspect=fixed;shape=mxgraph.aws4.illustration_desktop;pointerEvents=1;labelBackgroundColor=none;labelBorderColor=none;noLabel=1;" parent="1" vertex="1">
          <mxGeometry x="310" y="-312" width="100" height="91" as="geometry" />
        </mxCell>
        <mxCell id="xgc6DM9Copx6KXdF2zNQ-23" value="Client" style="text;html=1;align=center;verticalAlign=middle;resizable=0;points=[];autosize=1;strokeColor=none;fillColor=none;fontSize=23;fontColor=none;" parent="1" vertex="1">
          <mxGeometry x="320" y="-294" width="80" height="40" as="geometry" />
        </mxCell>
        <mxCell id="xgc6DM9Copx6KXdF2zNQ-33" value="" style="dashed=0;outlineConnect=0;html=1;align=center;labelPosition=center;verticalLabelPosition=bottom;verticalAlign=top;shape=mxgraph.weblogos.github;labelBackgroundColor=default;labelBorderColor=none;fontSize=30;fontColor=none;" parent="1" vertex="1">
          <mxGeometry x="1283" y="-197" width="75" height="75" as="geometry" />
        </mxCell>
        <mxCell id="xgc6DM9Copx6KXdF2zNQ-34" value="" style="shape=image;html=1;verticalAlign=top;verticalLabelPosition=bottom;labelBackgroundColor=#ffffff;imageAspect=0;aspect=fixed;image=https://cdn2.iconfinder.com/data/icons/social-media-2285/512/1_Facebook_colored_svg_copy-128.png;labelBorderColor=none;fontSize=30;fontColor=none;" parent="1" vertex="1">
          <mxGeometry x="1383" y="-195.44" width="71.87" height="71.87" as="geometry" />
        </mxCell>
        <mxCell id="xgc6DM9Copx6KXdF2zNQ-35" value="" style="strokeColor=#dddddd;shadow=1;strokeWidth=1;rounded=1;absoluteArcSize=1;arcSize=2;labelBackgroundColor=default;labelBorderColor=none;fontSize=30;fontColor=none;" parent="1" vertex="1">
          <mxGeometry x="1358.93" y="-397" width="120" height="60" as="geometry" />
        </mxCell>
        <mxCell id="xgc6DM9Copx6KXdF2zNQ-36" value="Google&#xa;Analytics" style="sketch=0;dashed=0;connectable=0;html=1;fillColor=#5184F3;strokeColor=none;shape=mxgraph.gcp2.google_analytics;part=1;labelPosition=right;verticalLabelPosition=middle;align=left;verticalAlign=middle;spacingLeft=5;fontColor=#999999;fontSize=12;labelBackgroundColor=default;labelBorderColor=none;" parent="xgc6DM9Copx6KXdF2zNQ-35" vertex="1">
          <mxGeometry width="45" height="45" relative="1" as="geometry">
            <mxPoint x="5" y="7" as="offset" />
          </mxGeometry>
        </mxCell>
        <mxCell id="xgc6DM9Copx6KXdF2zNQ-37" value="" style="shape=image;html=1;verticalAlign=top;verticalLabelPosition=bottom;labelBackgroundColor=#ffffff;imageAspect=0;aspect=fixed;image=https://cdn0.iconfinder.com/data/icons/social-media-and-logos-11/32/Gmail_envelope_letter_email_Gmail_envelope_letter_email-128.png;labelBorderColor=none;fontSize=30;fontColor=none;" parent="1" vertex="1">
          <mxGeometry x="1482" y="-194.44" width="76" height="76" as="geometry" />
        </mxCell>
        <mxCell id="xgc6DM9Copx6KXdF2zNQ-39" value="&lt;div&gt;the backend uses django allauth&lt;br&gt;&lt;/div&gt;&lt;div&gt;to generate a OAuth key that &lt;br&gt;&lt;/div&gt;&lt;div&gt;is used to authenticate users&lt;br&gt;&lt;/div&gt;&lt;div&gt;&lt;br&gt;&lt;/div&gt;" style="text;html=1;align=center;verticalAlign=middle;resizable=0;points=[];autosize=1;strokeColor=none;fillColor=none;fontSize=30;fontColor=#FF6E42;labelBackgroundColor=default;" parent="1" vertex="1">
          <mxGeometry x="1635" y="-222" width="450" height="160" as="geometry" />
        </mxCell>
        <mxCell id="xgc6DM9Copx6KXdF2zNQ-43" value="&lt;div&gt;the backend connects to&lt;/div&gt;&lt;div&gt;posthog and google analytics&lt;/div&gt;&lt;div&gt;to send user activity to the cloud&lt;br&gt;&lt;/div&gt;&lt;div&gt;&lt;br&gt;&lt;/div&gt;" style="text;html=1;align=center;verticalAlign=middle;resizable=0;points=[];autosize=1;strokeColor=none;fillColor=none;fontSize=30;fontColor=#FF6E42;labelBackgroundColor=default;" parent="1" vertex="1">
          <mxGeometry x="1635" y="-434" width="450" height="160" as="geometry" />
        </mxCell>
      </root>
    </mxGraphModel>
  </diagram>
</mxfile>
